<svg width="32" height="32" viewBox="0 0 32 32" fill="none" xmlns="http://www.w3.org/2000/svg">
<circle cx="16" cy="16" r="16" fill="#E84142"/>
<path d="M8.36604 22.3736H11.4691C12.1997 22.3736 12.565 22.3736 12.891 22.2833C13.2485 22.1771 13.5745 21.9887 13.8456 21.7293C14.0945 21.4922 14.2741 21.1779 14.6284 20.5578L14.639 20.5392L18.6636 13.4249C19.0211 12.8003 19.1978 12.4861 19.2764 12.1561C19.3628 11.7987 19.3628 11.4216 19.2764 11.0641C19.1984 10.7367 19.0198 10.4247 18.6677 9.80945L17.0846 7.04585C16.7586 6.47236 16.5936 6.18562 16.3854 6.07957C16.1615 5.96566 15.8944 5.96566 15.6705 6.07957C15.4623 6.18562 15.2974 6.47236 14.9713 7.04585L7.30942 20.551C6.98734 21.1166 6.82627 21.3995 6.83807 21.6312C6.85378 21.8826 6.9834 22.1104 7.19552 22.248C7.3919 22.3736 7.71399 22.3736 8.36604 22.3736Z" fill="white"/>
<path d="M23.7518 22.3736H19.3054C18.6495 22.3736 18.3195 22.3736 18.127 22.248C17.9149 22.1104 17.7853 21.8788 17.7696 21.6274C17.7579 21.3974 17.9202 21.1172 18.2451 20.5565L18.2527 20.5433L20.472 16.7331C20.7981 16.1714 20.963 15.8925 21.1673 15.7865C21.3911 15.6726 21.6544 15.6726 21.8782 15.7865C22.081 15.8897 22.2389 16.1568 22.5516 16.6855L22.5774 16.7292L24.8046 20.5393C24.8155 20.5581 24.8261 20.5765 24.8368 20.5947C25.1455 21.1274 25.303 21.3993 25.2918 21.6235C25.2798 21.8748 25.1463 22.1066 24.9343 22.2441C24.7378 22.3736 24.4078 22.3736 23.7518 22.3736Z" fill="white"/>
</svg>
