<svg width="28" height="28" viewBox="0 0 28 28" fill="none" xmlns="http://www.w3.org/2000/svg">
<circle cx="14" cy="14" r="14" fill="#F0B90B"/>
<path d="M10.767 12.6717L13.9999 9.43886L17.2346 12.6734L19.1158 10.7922L13.9999 5.67627L8.8858 10.7905L10.767 12.6717Z" fill="white"/>
<path d="M9.4385 13.9997L7.55737 12.1186L5.67615 13.9998L7.55728 15.8809L9.4385 13.9997Z" fill="white"/>
<path d="M10.767 15.3284L13.9999 18.5612L17.2345 15.3268L19.1167 17.2069L19.1158 17.2079L13.9999 22.3238L8.88304 17.207L10.767 15.3284Z" fill="white"/>
<path d="M20.4427 15.8818L22.3239 14.0006L20.4428 12.1195L18.5615 14.0007L20.4427 15.8818Z" fill="white"/>
<path d="M15.908 13.999H15.9088L13.9999 12.0901L12.0901 14L12.0927 14.0027L13.9999 15.9099L15.9088 14.001L15.9098 14L15.908 13.999Z" fill="white"/>
</svg>
