<svg width="28" height="28" viewBox="0 0 28 28" fill="none" xmlns="http://www.w3.org/2000/svg">
<circle cx="14" cy="14" r="14" fill="#F7931A"/>
<path d="M19.2243 12.3117C19.4602 10.7347 18.2595 9.88691 16.6176 9.32135L17.1502 7.18505L15.8499 6.86098L15.3313 8.94098C14.9895 8.85579 14.6384 8.77543 14.2895 8.6958L14.8117 6.60209L13.5121 6.27802L12.9791 8.41357C12.6961 8.34912 12.4184 8.28543 12.1487 8.21839L12.1502 8.21172L10.3569 7.76394L10.011 9.15283C10.011 9.15283 10.9758 9.37394 10.9554 9.38764C11.4821 9.51912 11.5773 9.86764 11.5613 10.1439L10.9547 12.5776C10.991 12.5869 11.038 12.6002 11.0899 12.621C11.0465 12.6102 11.0002 12.5984 10.9524 12.5869L10.1021 15.9962C10.0376 16.1562 9.8743 16.3962 9.50615 16.305C9.51911 16.3239 8.56097 16.0691 8.56097 16.0691L7.91541 17.5576L9.60763 17.9795C9.92244 18.0584 10.231 18.141 10.5347 18.2188L9.99652 20.3795L11.2954 20.7036L11.8284 18.5658C12.1832 18.6621 12.5276 18.751 12.8647 18.8347L12.3336 20.9625L13.6339 21.2865L14.1721 19.1299C16.3895 19.5495 18.0569 19.3802 18.7587 17.3747C19.3243 15.7599 18.7306 14.8284 17.5639 14.221C18.4136 14.0251 19.0536 13.4662 19.2243 12.3117ZM16.2532 16.478C15.8513 18.0928 13.1324 17.2199 12.251 17.001L12.965 14.1384C13.8465 14.3584 16.6732 14.7939 16.2532 16.478ZM16.6554 12.2884C16.2887 13.7573 14.0258 13.011 13.2917 12.828L13.9391 10.2317C14.6732 10.4147 17.0373 10.7562 16.6554 12.2884Z" fill="white"/>
</svg>
