<svg width="32" height="32" viewBox="0 0 32 32" fill="none" xmlns="http://www.w3.org/2000/svg">
<circle cx="16" cy="16" r="16" fill="white"/>
<path d="M9.73205 16L9.74209 19.6799L12.8688 21.5198V23.6741L7.91222 20.7671V14.924L9.73205 16ZM9.73205 12.3202V14.4646L7.9111 13.3874V11.2431L9.73205 10.1659L11.5619 11.2431L9.73205 12.3202ZM14.1746 11.2431L15.9955 10.1659L17.8254 11.2431L15.9955 12.3202L14.1746 11.2431Z" fill="white"/>
<path d="M11.0479 18.9171V16.7628L12.8688 17.84V19.9843L11.0479 18.9171ZM14.1746 22.2914L15.9955 23.3686L17.8254 22.2914V24.4357L15.9955 25.5129L14.1746 24.4357V22.2914ZM20.4369 11.2431L22.2579 10.1659L24.0878 11.2431V13.3874L22.2579 14.4646V12.3202L20.4369 11.2431ZM22.2579 19.6799L22.2679 16L24.0889 14.9229V20.766L19.1323 23.673V21.5186L22.2579 19.6799Z" fill="white"/>
<path d="M20.9521 18.9171L19.1312 19.9843V17.84L20.9521 16.7628V18.9171Z" fill="white"/>
<path d="M20.9521 13.083L20.9622 15.2373L17.8265 17.0772V20.766L16.0056 21.8331L14.1846 20.766V17.0772L11.049 15.2373V13.083L12.8777 12.0058L15.9944 13.8546L19.1301 12.0058L20.9599 13.083H20.9521ZM11.0479 9.40427L15.9955 6.48718L20.9521 9.40427L19.1312 10.4814L15.9955 8.63262L12.8688 10.4814L11.0479 9.40427Z" fill="white"/>
<path d="M10.9057 15.5539C10.8829 15.9507 11.0185 16.3403 11.2829 16.6371C11.5472 16.9339 11.9185 17.1137 12.3153 17.1369H12.397C12.6893 17.1365 12.975 17.0507 13.2189 16.8898C13.4629 16.729 13.6545 16.5003 13.7699 16.2318C13.8854 15.9634 13.9197 15.667 13.8687 15.3793C13.8177 15.0916 13.6835 14.8251 13.4828 14.6127C13.2821 14.4004 13.0236 14.2514 12.7392 14.1843C12.4548 14.1172 12.1569 14.1348 11.8824 14.2349C11.6079 14.3351 11.3688 14.5135 11.1945 14.748C11.0202 14.9825 10.9183 15.263 10.9016 15.5547L10.9057 15.5539Z" fill="#0033AD"/>
<path d="M5.32603 15.1745C5.23064 15.1692 5.1358 15.1922 5.05351 15.2408C4.97122 15.2893 4.90516 15.3612 4.86369 15.4472C4.82222 15.5333 4.8072 15.6297 4.82052 15.7243C4.83384 15.819 4.8749 15.9075 4.93853 15.9788C5.00215 16.05 5.08547 16.1009 5.17797 16.1248C5.27047 16.1487 5.36798 16.1447 5.45819 16.1132C5.5484 16.0818 5.62726 16.0243 5.6848 15.948C5.74234 15.8717 5.77597 15.7801 5.78146 15.6847C5.78521 15.6213 5.7764 15.5577 5.75552 15.4977C5.73464 15.4377 5.7021 15.3824 5.65978 15.335C5.61746 15.2876 5.56619 15.249 5.50891 15.2214C5.45164 15.1939 5.38949 15.1779 5.32603 15.1745Z" fill="#0033AD"/>
<path d="M10.8108 6.86966C10.8958 6.82603 10.9659 6.75824 11.0124 6.67483C11.059 6.59142 11.0798 6.4961 11.0722 6.40089C11.0647 6.30568 11.0292 6.21483 10.9701 6.13977C10.911 6.0647 10.8311 6.00879 10.7403 5.97907C10.6496 5.94934 10.552 5.94713 10.46 5.97272C10.368 5.9983 10.2856 6.05053 10.2232 6.12284C10.1608 6.19515 10.1212 6.2843 10.1094 6.37908C10.0975 6.47385 10.114 6.57 10.1567 6.65544C10.1854 6.71263 10.2251 6.76357 10.2736 6.80533C10.3221 6.84709 10.3783 6.87884 10.4391 6.89875C10.4999 6.91867 10.5641 6.92635 10.6279 6.92136C10.6917 6.91636 10.7538 6.89879 10.8108 6.86966Z" fill="#0033AD"/>
<path d="M12.3292 9.5172C12.4611 9.45064 12.5704 9.34646 12.6431 9.21782C12.7159 9.08918 12.7488 8.94185 12.7379 8.79448C12.7269 8.6471 12.6725 8.50628 12.5815 8.38983C12.4905 8.27338 12.367 8.18652 12.2267 8.14023C12.0863 8.09395 11.9354 8.09031 11.793 8.12978C11.6506 8.16926 11.523 8.25007 11.4266 8.362C11.3301 8.47394 11.2689 8.61197 11.2509 8.75864C11.2328 8.90532 11.2586 9.05406 11.3251 9.18606C11.3693 9.27375 11.4303 9.35189 11.5046 9.416C11.579 9.48011 11.6653 9.52893 11.7585 9.55969C11.8518 9.59044 11.9502 9.60252 12.0481 9.59523C12.146 9.58794 12.2415 9.56142 12.3292 9.5172Z" fill="#0033AD"/>
<path d="M7.2197 11.3381C7.32147 11.405 7.44081 11.4403 7.56262 11.4394C7.68442 11.4384 7.80322 11.4014 7.90398 11.333C8.00473 11.2645 8.08292 11.1677 8.12865 11.0548C8.17438 10.9419 8.18559 10.818 8.16086 10.6987C8.13614 10.5794 8.07659 10.4702 7.98975 10.3848C7.90291 10.2993 7.79269 10.2416 7.67303 10.2188C7.55336 10.1961 7.42964 10.2093 7.3175 10.2569C7.20537 10.3045 7.10987 10.3842 7.04309 10.4861C6.95364 10.6226 6.922 10.7889 6.95512 10.9487C6.98823 11.1084 7.08339 11.2485 7.2197 11.3381Z" fill="#0033AD"/>
<path d="M8.12974 14.9022C7.9822 14.8939 7.83551 14.9295 7.7082 15.0045C7.58089 15.0796 7.47868 15.1907 7.41449 15.3238C7.3503 15.4569 7.32702 15.606 7.34758 15.7524C7.36814 15.8987 7.43162 16.0356 7.53 16.1459C7.62838 16.2562 7.75725 16.3348 7.9003 16.3718C8.04336 16.4089 8.19419 16.4027 8.33372 16.354C8.47325 16.3054 8.59523 16.2164 8.68423 16.0985C8.77323 15.9805 8.82526 15.8388 8.83374 15.6913C8.8449 15.4933 8.77702 15.299 8.64502 15.1511C8.51302 15.0031 8.32769 14.9136 8.12974 14.9022Z" fill="#0033AD"/>
<path d="M7.30146 19.9267C7.1928 19.9816 7.10287 20.0675 7.04302 20.1735C6.98317 20.2795 6.95609 20.4009 6.96522 20.5223C6.97435 20.6437 7.01926 20.7597 7.09429 20.8556C7.16932 20.9515 7.27109 21.023 7.38673 21.061C7.50238 21.0991 7.62672 21.102 7.74402 21.0694C7.86132 21.0368 7.96633 20.9701 8.04576 20.8779C8.1252 20.7856 8.1755 20.6719 8.1903 20.551C8.2051 20.4302 8.18374 20.3077 8.12892 20.1989C8.0925 20.1267 8.04219 20.0624 7.98088 20.0096C7.91958 19.9568 7.84847 19.9166 7.77162 19.8913C7.69477 19.866 7.6137 19.8562 7.53302 19.8622C7.45235 19.8683 7.37367 19.8902 7.30146 19.9267Z" fill="#0033AD"/>
<path d="M10.2066 13.3577C10.3521 13.4531 10.5226 13.5031 10.6966 13.5016C10.8706 13.5001 11.0402 13.447 11.184 13.349C11.3279 13.2511 11.4394 13.1127 11.5046 12.9514C11.5697 12.79 11.5856 12.613 11.5501 12.4426C11.5147 12.2723 11.4296 12.1163 11.3054 11.9943C11.1813 11.8724 11.0239 11.79 10.8529 11.7575C10.682 11.725 10.5053 11.744 10.3451 11.812C10.1849 11.88 10.0485 11.9939 9.95309 12.1394C9.88962 12.236 9.84582 12.3442 9.82421 12.4577C9.80259 12.5713 9.80358 12.688 9.82713 12.8011C9.85067 12.9143 9.8963 13.0217 9.96141 13.1172C10.0265 13.2127 10.1098 13.2944 10.2066 13.3577Z" fill="#0033AD"/>
<path d="M19.4231 9.45833C19.547 9.53916 19.6921 9.58143 19.84 9.57981C19.9879 9.57819 20.1321 9.53275 20.2542 9.44923C20.3763 9.36572 20.4709 9.24787 20.5261 9.11059C20.5812 8.97332 20.5944 8.82277 20.564 8.67799C20.5336 8.53321 20.461 8.40069 20.3553 8.29718C20.2496 8.19367 20.1156 8.12382 19.9702 8.09647C19.8248 8.06911 19.6746 8.08547 19.5385 8.14348C19.4024 8.20149 19.2865 8.29854 19.2056 8.42237C19.1517 8.50463 19.1146 8.59671 19.0963 8.69334C19.0781 8.78998 19.0791 8.88926 19.0993 8.9855C19.1195 9.08174 19.1585 9.17304 19.2141 9.25418C19.2696 9.33532 19.3407 9.4047 19.4231 9.45833Z" fill="#0033AD"/>
<path d="M20.957 6.81897C21.0371 6.87147 21.1309 6.89903 21.2267 6.89817C21.3225 6.89731 21.4158 6.86806 21.4949 6.81413C21.5741 6.7602 21.6354 6.68401 21.6713 6.5952C21.7071 6.50639 21.7158 6.40895 21.6962 6.31521C21.6766 6.22147 21.6297 6.13564 21.5613 6.06858C21.4929 6.00152 21.4062 5.95625 21.3121 5.93849C21.218 5.92073 21.1208 5.93128 21.0327 5.96881C20.9446 6.00634 20.8696 6.06916 20.8172 6.14932C20.747 6.25668 20.7223 6.38751 20.7485 6.51307C20.7747 6.63863 20.8497 6.74865 20.957 6.81897Z" fill="#0033AD"/>
<path d="M19.5408 14.1296C19.3446 14.1183 19.1481 14.1458 18.9625 14.2104C18.7769 14.2751 18.6058 14.3757 18.4591 14.5065C18.1628 14.7706 17.9835 15.1417 17.9607 15.538C17.938 15.9343 18.0735 16.3234 18.3377 16.6197C18.6018 16.916 18.9728 17.0953 19.3691 17.1181C19.3977 17.1181 19.4272 17.1181 19.4558 17.1181C19.7445 17.1179 20.027 17.0343 20.2692 16.8772C20.5114 16.7201 20.703 16.4963 20.8209 16.2328C20.9388 15.9693 20.9779 15.6773 20.9336 15.392C20.8893 15.1067 20.7634 14.8404 20.5711 14.625C20.4408 14.4782 20.2827 14.3588 20.1058 14.2737C19.9289 14.1886 19.7368 14.1396 19.5408 14.1296Z" fill="#0033AD"/>
<path d="M12.8206 13.2539C12.9448 13.502 13.1358 13.7106 13.3722 13.856C13.6085 14.0015 13.8807 14.0781 14.1583 14.0772C14.4141 14.0773 14.6657 14.0118 14.889 13.8869C15.1124 13.7621 15.3 13.5821 15.434 13.3642C15.568 13.1462 15.6439 12.8975 15.6544 12.6419C15.665 12.3863 15.6099 12.1322 15.4943 11.9039C15.3692 11.6569 15.1778 11.4496 14.9416 11.3051C14.7053 11.1607 14.4335 11.0849 14.1566 11.0863C13.9016 11.0867 13.6508 11.1523 13.4282 11.2768C13.2056 11.4014 13.0185 11.5807 12.8847 11.7978C12.7509 12.015 12.6747 12.2627 12.6635 12.5175C12.6523 12.7723 12.7064 13.0258 12.8206 13.2539Z" fill="#0033AD"/>
<path d="M24.5538 11.3365C24.6625 11.2816 24.7525 11.1958 24.8124 11.0898C24.8723 10.9839 24.8995 10.8625 24.8904 10.7411C24.8814 10.6197 24.8366 10.5037 24.7616 10.4078C24.6867 10.3119 24.585 10.2403 24.4694 10.2021C24.3538 10.164 24.2295 10.161 24.1122 10.1934C23.9949 10.2259 23.8898 10.2924 23.8103 10.3846C23.7308 10.4768 23.6803 10.5905 23.6654 10.7113C23.6505 10.8321 23.6717 10.9546 23.7264 11.0634C23.8 11.2092 23.9284 11.3199 24.0836 11.3712C24.2387 11.4224 24.4079 11.4099 24.5538 11.3365Z" fill="#0033AD"/>
<path d="M20.7591 11.8132C20.6037 11.8914 20.475 12.014 20.3893 12.1654C20.3035 12.3169 20.2646 12.4903 20.2775 12.6638C20.2903 12.8374 20.3543 13.0032 20.4614 13.1403C20.5685 13.2775 20.7138 13.3798 20.8791 13.4344C21.0443 13.4889 21.222 13.4932 21.3897 13.4468C21.5574 13.4003 21.7076 13.3052 21.8212 13.1734C21.9348 13.0416 22.0068 12.8791 22.0281 12.7064C22.0493 12.5337 22.0189 12.3586 21.9406 12.2032C21.8887 12.0999 21.817 12.0079 21.7295 11.9324C21.642 11.8569 21.5405 11.7994 21.4308 11.7631C21.321 11.7269 21.2052 11.7127 21.09 11.7213C20.9747 11.7299 20.8623 11.7611 20.7591 11.8132Z" fill="#0033AD"/>
<path d="M15.8712 6.5933C15.9928 6.60022 16.1137 6.57093 16.2187 6.50912C16.3236 6.44731 16.4079 6.35577 16.4608 6.24607C16.5137 6.13637 16.5329 6.01344 16.5159 5.89284C16.499 5.77223 16.4466 5.65937 16.3655 5.56852C16.2844 5.47768 16.1781 5.41293 16.0602 5.38248C15.9423 5.35202 15.818 5.35722 15.703 5.39743C15.588 5.43763 15.4876 5.51103 15.4143 5.60833C15.3411 5.70564 15.2983 5.82248 15.2915 5.94408C15.2824 6.10703 15.3383 6.26695 15.447 6.38868C15.5557 6.51042 15.7083 6.58402 15.8712 6.5933Z" fill="#0033AD"/>
<path d="M15.8647 10.4681C16.0384 10.4779 16.211 10.4359 16.3609 10.3475C16.5107 10.2592 16.631 10.1283 16.7065 9.97164C16.782 9.81493 16.8094 9.63935 16.7851 9.46709C16.7609 9.29484 16.6861 9.13363 16.5703 9.00386C16.4544 8.87408 16.3027 8.78156 16.1343 8.73798C15.9659 8.69441 15.7884 8.70173 15.6241 8.75903C15.4599 8.81633 15.3163 8.92104 15.2116 9.05992C15.1068 9.1988 15.0456 9.36561 15.0356 9.53928C15.0224 9.77238 15.1024 10.0012 15.2578 10.1754C15.4133 10.3495 15.6316 10.4548 15.8647 10.4681Z" fill="#0033AD"/>
<path d="M11.0978 19.4492C11.2532 19.3708 11.3819 19.2482 11.4675 19.0967C11.5532 18.9452 11.592 18.7717 11.5791 18.5982C11.5662 18.4247 11.502 18.2589 11.3949 18.1217C11.2877 17.9846 11.1423 17.8824 10.977 17.828C10.8117 17.7735 10.634 17.7693 10.4663 17.8159C10.2986 17.8624 10.1485 17.9577 10.035 18.0896C9.92146 18.2214 9.84958 18.384 9.82845 18.5568C9.80732 18.7295 9.83789 18.9046 9.9163 19.06C10.0214 19.2682 10.2049 19.4262 10.4265 19.4992C10.648 19.5722 10.8895 19.5542 11.0978 19.4492Z" fill="#0033AD"/>
<path d="M16.4329 11.7518C16.2505 12.0303 16.1661 12.3617 16.1931 12.6935C16.2202 13.0253 16.3571 13.3386 16.5823 13.5839C16.8074 13.8291 17.1079 13.9923 17.4362 14.0475C17.7645 14.1027 18.1019 14.0469 18.3949 13.8888C18.6879 13.7308 18.9198 13.4795 19.054 13.1748C19.1881 12.8701 19.2168 12.5293 19.1355 12.2065C19.0542 11.8837 18.8675 11.5972 18.6051 11.3923C18.3426 11.1875 18.0193 11.0761 17.6864 11.0756C17.4378 11.0755 17.193 11.1372 16.9742 11.2552C16.7553 11.3733 16.5693 11.544 16.4329 11.7518Z" fill="#0033AD"/>
<path d="M19.0347 18.0093C18.9148 17.7716 18.7337 17.5701 18.51 17.4258C18.2863 17.2814 18.0281 17.1994 17.7621 17.1881C17.4961 17.1768 17.2319 17.2367 16.9968 17.3616C16.7616 17.4865 16.5641 17.6718 16.4245 17.8986C16.2849 18.1253 16.2084 18.3851 16.2027 18.6513C16.1971 18.9175 16.2626 19.1804 16.3924 19.4128C16.5222 19.6452 16.7118 19.8388 16.9414 19.9735C17.171 20.1083 17.4324 20.1793 17.6987 20.1793C17.9329 20.1777 18.1635 20.1217 18.3724 20.0158C18.7257 19.8369 18.9938 19.5254 19.1179 19.1493C19.2421 18.7733 19.2121 18.3633 19.0347 18.0093Z" fill="#0033AD"/>
<path d="M21.6495 17.9046C21.5041 17.8091 21.3336 17.7589 21.1596 17.7603C20.9856 17.7618 20.8159 17.8147 20.672 17.9126C20.5281 18.0104 20.4165 18.1488 20.3512 18.31C20.2859 18.4713 20.2699 18.6484 20.3053 18.8188C20.3406 18.9891 20.4257 19.1452 20.5497 19.2672C20.6737 19.3893 20.8312 19.4718 21.0021 19.5044C21.173 19.5369 21.3498 19.5181 21.51 19.4502C21.6702 19.3823 21.8067 19.2684 21.9022 19.1229C22.0298 18.9277 22.0749 18.6899 22.0275 18.4616C21.9802 18.2332 21.8443 18.033 21.6495 17.9046Z" fill="#0033AD"/>
<path d="M24.5146 15.6569C24.5229 15.5094 24.4873 15.3627 24.4123 15.2354C24.3372 15.1081 24.2262 15.0059 24.093 14.9417C23.9599 14.8775 23.8108 14.8542 23.6645 14.8748C23.5181 14.8953 23.3812 14.9588 23.2709 15.0572C23.1606 15.1556 23.082 15.2844 23.045 15.4275C23.0079 15.5705 23.0141 15.7214 23.0628 15.8609C23.1114 16.0004 23.2004 16.1224 23.3183 16.2114C23.4363 16.3004 23.578 16.3524 23.7255 16.3609C23.9235 16.3721 24.1178 16.3042 24.2657 16.1722C24.4137 16.0402 24.5032 15.8549 24.5146 15.6569Z" fill="#0033AD"/>
<path d="M26.5849 15.1246C26.4893 15.1191 26.3942 15.1421 26.3117 15.1906C26.2292 15.2391 26.1629 15.3111 26.1212 15.3973C26.0796 15.4835 26.0644 15.5801 26.0777 15.6749C26.0909 15.7697 26.132 15.8585 26.1957 15.9299C26.2594 16.0014 26.3428 16.0524 26.4355 16.0764C26.5282 16.1005 26.6259 16.0965 26.7163 16.065C26.8067 16.0335 26.8857 15.9759 26.9434 15.8995C27.0011 15.823 27.0348 15.7312 27.0403 15.6357C27.0474 15.5076 27.0035 15.3818 26.9182 15.2861C26.8328 15.1903 26.7129 15.1322 26.5849 15.1246Z" fill="#0033AD"/>
<path d="M24.6356 19.9242C24.5337 19.8575 24.4144 19.8225 24.2927 19.8236C24.1709 19.8247 24.0522 19.8619 23.9516 19.9304C23.851 19.999 23.7729 20.0958 23.7274 20.2087C23.6818 20.3216 23.6707 20.4455 23.6955 20.5647C23.7203 20.6839 23.7798 20.793 23.8667 20.8784C23.9535 20.9637 24.0637 21.0214 24.1833 21.0441C24.3029 21.0669 24.4266 21.0536 24.5387 21.0061C24.6508 20.9585 24.7462 20.8788 24.813 20.777C24.8574 20.7094 24.888 20.6337 24.9031 20.5542C24.9182 20.4747 24.9175 20.3931 24.901 20.3139C24.8845 20.2347 24.8526 20.1595 24.8071 20.0926C24.7615 20.0258 24.7033 19.9685 24.6356 19.9242Z" fill="#0033AD"/>
<path d="M10.8991 24.4434C10.8191 24.3908 10.7253 24.3632 10.6296 24.364C10.5338 24.3648 10.4405 24.394 10.3613 24.4478C10.2822 24.5016 10.2208 24.5777 10.1849 24.6665C10.149 24.7552 10.1402 24.8526 10.1596 24.9463C10.179 25.04 10.2258 25.1259 10.294 25.1931C10.3623 25.2602 10.4489 25.3056 10.5429 25.3235C10.6369 25.3415 10.7342 25.3311 10.8223 25.2938C10.9105 25.2565 10.9856 25.1938 11.0381 25.1138C11.073 25.0607 11.0971 25.0012 11.109 24.9387C11.1209 24.8763 11.1204 24.8121 11.1075 24.7498C11.0946 24.6875 11.0696 24.6284 11.0338 24.5758C10.998 24.5233 10.9523 24.4782 10.8991 24.4434Z" fill="#0033AD"/>
<path d="M21.0445 24.3927C20.959 24.4358 20.8882 24.5032 20.841 24.5866C20.7939 24.6699 20.7725 24.7653 20.7796 24.8608C20.7867 24.9563 20.822 25.0475 20.8809 25.123C20.9399 25.1984 21.0199 25.2547 21.1108 25.2846C21.2018 25.3146 21.2995 25.3169 21.3918 25.2913C21.4841 25.2657 21.5666 25.2133 21.6291 25.1408C21.6916 25.0682 21.7312 24.9788 21.7428 24.8838C21.7544 24.7887 21.7376 24.6924 21.6945 24.6069C21.666 24.5501 21.6265 24.4994 21.5784 24.4579C21.5302 24.4164 21.4743 24.3848 21.414 24.3649C21.3536 24.345 21.2899 24.3372 21.2264 24.3419C21.163 24.3467 21.1012 24.364 21.0445 24.3927Z" fill="#0033AD"/>
<path d="M15.4223 19.508C15.6048 19.2295 15.6892 18.8981 15.6621 18.5663C15.6351 18.2344 15.4981 17.9211 15.2729 17.6759C15.0477 17.4306 14.7471 17.2675 14.4187 17.2123C14.0904 17.1572 13.753 17.2131 13.46 17.3712C13.167 17.5294 12.9352 17.7808 12.8011 18.0856C12.6671 18.3903 12.6385 18.7311 12.72 19.054C12.8014 19.3768 12.9882 19.6633 13.2508 19.868C13.5134 20.0727 13.8367 20.184 14.1697 20.1842C14.4184 20.1851 14.6633 20.1236 14.8821 20.0055C15.1009 19.8874 15.2866 19.7164 15.4223 19.508Z" fill="#0033AD"/>
<path d="M12.4322 21.8048C12.3085 21.7239 12.1637 21.6815 12.0159 21.6829C11.8681 21.6843 11.7241 21.7295 11.602 21.8128C11.4799 21.896 11.3853 22.0136 11.33 22.1507C11.2747 22.2877 11.2613 22.4381 11.2915 22.5828C11.3216 22.7274 11.394 22.8599 11.4995 22.9634C11.6049 23.067 11.7387 23.1369 11.8839 23.1645C12.0291 23.192 12.1792 23.1758 12.3152 23.1181C12.4512 23.0603 12.567 22.9635 12.6481 22.84C12.7566 22.674 12.7948 22.4718 12.7543 22.2777C12.7139 22.0836 12.598 21.9135 12.4322 21.8048Z" fill="#0033AD"/>
<path d="M15.9211 24.669C15.7995 24.6621 15.6787 24.6914 15.5737 24.7532C15.4688 24.815 15.3846 24.9065 15.3317 25.0161C15.2787 25.1258 15.2595 25.2486 15.2764 25.3692C15.2933 25.4898 15.3456 25.6026 15.4266 25.6935C15.5077 25.7844 15.6138 25.8492 15.7317 25.8797C15.8496 25.9103 15.9738 25.9052 16.0888 25.8651C16.2038 25.825 16.3043 25.7518 16.3776 25.6546C16.451 25.5574 16.4938 25.4406 16.5008 25.3191C16.5055 25.2383 16.4941 25.1574 16.4675 25.0811C16.4409 25.0047 16.3995 24.9343 16.3456 24.8739C16.2918 24.8136 16.2266 24.7644 16.1538 24.7292C16.0809 24.6941 16.0019 24.6736 15.9211 24.669Z" fill="#0033AD"/>
<path d="M15.9276 20.795C15.7538 20.7845 15.5808 20.8257 15.4304 20.9136C15.28 21.0015 15.1591 21.132 15.083 21.2886C15.0069 21.4452 14.9789 21.621 15.0028 21.7935C15.0266 21.966 15.101 22.1276 15.2167 22.2577C15.3325 22.3879 15.4842 22.4808 15.6527 22.5246C15.8213 22.5685 15.999 22.5613 16.1635 22.5041C16.328 22.4468 16.4718 22.342 16.5767 22.203C16.6815 22.064 16.7428 21.8969 16.7527 21.723C16.7661 21.4906 16.6867 21.2624 16.5321 21.0884C16.3774 20.9144 16.16 20.8089 15.9276 20.795Z" fill="#0033AD"/>
<path d="M19.5261 21.7451C19.3941 21.8121 19.2849 21.9168 19.2124 22.0458C19.1399 22.1749 19.1073 22.3226 19.1187 22.4702C19.1302 22.6178 19.1852 22.7587 19.2767 22.875C19.3683 22.9913 19.4923 23.0779 19.6331 23.1237C19.7739 23.1695 19.9251 23.1726 20.0676 23.1324C20.2101 23.0922 20.3374 23.0107 20.4336 22.8981C20.5297 22.7855 20.5903 22.647 20.6076 22.4999C20.625 22.3529 20.5983 22.204 20.531 22.0722C20.4866 21.9847 20.4253 21.9068 20.3507 21.8429C20.2762 21.7791 20.1897 21.7306 20.0964 21.7002C20.003 21.6699 19.9046 21.6582 19.8068 21.6659C19.7089 21.6736 19.6135 21.7005 19.5261 21.7451Z" fill="#0033AD"/>
</svg>
