<svg width="24" height="24" viewBox="0 0 24 24" fill="none" xmlns="http://www.w3.org/2000/svg">
<path d="M12 20C13.5822 20 15.129 19.5308 16.4445 18.6517C17.7602 17.7727 18.7855 16.5233 19.391 15.0615C19.9965 13.5996 20.1549 11.9911 19.8463 10.4393C19.5376 8.88743 18.7756 7.46197 17.6569 6.34314C16.5381 5.22433 15.1125 4.4624 13.5607 4.15372C12.0089 3.84504 10.4004 4.00347 8.93854 4.60897C7.47673 5.21447 6.2273 6.23985 5.34826 7.55544C4.46921 8.87103 4.00001 10.4178 4.00001 12C3.99824 13.2336 4.28306 14.4508 4.83201 15.5556L4.26877 18.5643C4.13941 19.2553 4.74467 19.8606 5.4357 19.7312L8.44445 19.168C9.54924 19.7169 10.7664 20.0017 12 20Z" stroke="#A6B0BA" stroke-width="2" stroke-linecap="round" stroke-linejoin="round"/>
</svg>
