<svg width="20" height="20" viewBox="0 0 20 20" fill="none" xmlns="http://www.w3.org/2000/svg">
<path d="M12.5 5.83326L7.08333 11.25C6.75181 11.5815 6.56556 12.0311 6.56556 12.5C6.56556 12.9688 6.75181 13.4184 7.08333 13.75C7.41485 14.0815 7.86449 14.2677 8.33333 14.2677C8.80216 14.2677 9.25183 14.0815 9.58333 13.75L15 8.33326C15.6631 7.67023 16.0355 6.77095 16.0355 5.83326C16.0355 4.89559 15.6631 3.9963 15 3.33326C14.337 2.67023 13.4377 2.29773 12.5 2.29773C11.5623 2.29773 10.6631 2.67023 10 3.33326L4.58333 8.74996C3.58877 9.74446 3.03003 11.0934 3.03003 12.5C3.03003 13.9065 3.58877 15.2554 4.58333 16.25C5.57789 17.2445 6.9268 17.8032 8.33333 17.8032C9.73983 17.8032 11.0887 17.2445 12.0833 16.25L17.5 10.8333" stroke="#A6B0BA" stroke-width="1.5" stroke-linecap="round" stroke-linejoin="round"/>
</svg>
