<svg xmlns="http://www.w3.org/2000/svg" width="28" height="28" fill="none"><circle cx="14" cy="14" r="14" fill="#000"/><path fill="url(#a)" d="m21.0475 17.6724-2.351 2.5235c-.0517.0542-.1139.0974-.1827.1271-.0689.0296-.143.045-.2179.0454H7.15136c-.05474.0037-.10931-.0095-.15619-.038-.04688-.0285-.08378-.0709-.1056-.1212-.02183-.0504-.02751-.1062-.01626-.16.01124-.0536.03886-.1025.07904-.1399l2.34832-2.5208c.05123-.0551.11322-.099.18216-.1291.06891-.0302.14328-.0458.21851-.046H20.8458c.055-.0044.11.0084.1573.0367.0473.0283.0847.0706.1069.1211.0222.0504.0281.1066.0169.1606-.0112.054-.039.1031-.0794.1406Zm-2.351-5.076c-.0513-.0547-.1134-.0983-.1824-.128-.0689-.0296-.1432-.0448-.2182-.0445H7.15136c-.05474-.0038-.10931.0095-.15619.038-.04688.0285-.08378.0708-.1056.1212-.02183.0503-.02751.1062-.01626.1599.01124.0537.03886.1026.07904.14l2.34832 2.5207c.05137.0548.11343.0983.18237.128.06893.0297.14323.0448.2183.0445H20.8458c.055.0044.11-.0084.1573-.0367.0473-.0282.0847-.0706.1069-.1211.0222-.0505.0281-.1066.0169-.1606-.0112-.054-.039-.1031-.0794-.1406l-2.351-2.5208ZM7.15136 10.7867H18.2959c.0752-.0002.1495-.0158.2185-.046.0689-.0301.1309-.074.1821-.1291l2.351-2.52078c.0404-.0375.0682-.08666.0794-.14065.0112-.054.0053-.11014-.0169-.16063-.0222-.05048-.0596-.09281-.1069-.12108-.0473-.02828-.1023-.0411-.1573-.03669H9.70134c-.07496.00032-.14907.01577-.21793.0454-.06883.02964-.131.07286-.18274.12708L6.95235 10.3277c-.04018.0373-.0678.0862-.07904.1399-.01125.0537-.00557.1096.01626.16.02182.0503.05872.0926.1056.1211.04688.0286.10145.0418.15619.038Z"/><defs><linearGradient id="a" x1="8.08007" x2="19.7685" y1="20.6708" y2="7.49644" gradientUnits="userSpaceOnUse"><stop offset=".08" stop-color="#9945FF"/><stop offset=".3" stop-color="#8752F3"/><stop offset=".5" stop-color="#5497D5"/><stop offset=".6" stop-color="#43B4CA"/><stop offset=".72" stop-color="#28E0B9"/><stop offset=".97" stop-color="#19FB9B"/></linearGradient></defs></svg>