<svg width="8" height="13" viewBox="0 0 8 13" fill="none" xmlns="http://www.w3.org/2000/svg">
<path d="M3.82706 12.1818V0.363636H4.58416V12.1818H3.82706ZM6.19531 4.02912C6.14607 3.59209 5.94295 3.25355 5.58594 3.01349C5.22893 2.77036 4.77959 2.64879 4.23793 2.64879C3.85014 2.64879 3.51468 2.71035 3.23153 2.83345C2.94839 2.95348 2.72834 3.11967 2.57138 3.33203C2.4175 3.54131 2.34055 3.77983 2.34055 4.04759C2.34055 4.27225 2.39287 4.46615 2.49751 4.62926C2.60523 4.79238 2.74527 4.92933 2.91761 5.04013C3.09304 5.14785 3.28078 5.23864 3.48082 5.3125C3.68087 5.38329 3.87322 5.44176 4.05788 5.48793L4.98118 5.72798C5.28279 5.80185 5.59209 5.90187 5.90909 6.02805C6.22609 6.15424 6.52001 6.32043 6.79084 6.52663C7.06167 6.73284 7.28018 6.98828 7.44638 7.29297C7.61565 7.59766 7.70028 7.96236 7.70028 8.38707C7.70028 8.92259 7.56179 9.39808 7.2848 9.81357C7.01089 10.229 6.61233 10.5568 6.08913 10.7969C5.56901 11.0369 4.93963 11.157 4.20099 11.157C3.49313 11.157 2.88068 11.0446 2.36364 10.82C1.84659 10.5953 1.44188 10.2768 1.1495 9.86435C0.857126 9.44886 0.695549 8.95644 0.664773 8.38707H2.09588C2.12358 8.72869 2.23438 9.01338 2.42827 9.24112C2.62524 9.46579 2.87607 9.63352 3.18075 9.74432C3.48852 9.85204 3.82552 9.90589 4.19176 9.90589C4.59493 9.90589 4.95348 9.8428 5.2674 9.71662C5.5844 9.58736 5.83369 9.40885 6.01527 9.18111C6.19685 8.95028 6.28764 8.68099 6.28764 8.37322C6.28764 8.09316 6.20762 7.86387 6.04759 7.68537C5.89063 7.50687 5.67673 7.35914 5.4059 7.24219C5.13814 7.12524 4.83499 7.02214 4.49645 6.93288L3.37926 6.6282C2.62216 6.42199 2.02202 6.11884 1.57884 5.71875C1.13873 5.31866 0.918679 4.7893 0.918679 4.13068C0.918679 3.58594 1.06641 3.11044 1.36186 2.70419C1.65732 2.29794 2.05741 1.98248 2.56215 1.75781C3.06688 1.53007 3.63625 1.41619 4.27024 1.41619C4.91039 1.41619 5.47514 1.52853 5.96449 1.7532C6.45691 1.97786 6.8447 2.28717 7.12784 2.68111C7.41099 3.07197 7.55871 3.52131 7.57102 4.02912H6.19531Z" fill="#18191B"/>
</svg>
