<svg width="21" height="16" viewBox="0 0 21 16" fill="none" xmlns="http://www.w3.org/2000/svg">
<path d="M19 15.5H2C1.46957 15.5 0.96086 15.2893 0.585787 14.9142C0.210714 14.5391 0 14.0304 0 13.5V6.5H8V0.5H19C19.5304 0.5 20.0391 0.710712 20.4142 1.08578C20.7893 1.46086 21 1.96957 21 2.5V13.5C21 14.0304 20.7893 14.5391 20.4142 14.9142C20.0391 15.2893 19.5304 15.5 19 15.5Z" fill="#E25950"/>
<path d="M0 11.5H21V12.5H0V11.5ZM0 9.5H21V10.5H0V9.5ZM0 7.5H21V8.5H0V7.5ZM8 5.5H21V6.5H8V5.5ZM8 3.5H21V4.5H8V3.5ZM8 1.5H20.723C20.9023 1.80291 20.9979 2.14802 21 2.5H8V1.5ZM20.723 14.5H0.277C0.097679 14.1971 0.00208218 13.852 0 13.5H21C20.9979 13.852 20.9023 14.1971 20.723 14.5Z" fill="#F6F9FC"/>
<path opacity="0.2" d="M19 15.5H2C1.46957 15.5 0.96086 15.2893 0.585787 14.9142C0.210714 14.5391 0 14.0304 0 13.5V6.5H1V13.5C1 13.7652 1.10536 14.0196 1.29289 14.2071C1.48043 14.3946 1.73478 14.5 2 14.5H19C19.2652 14.5 19.5196 14.3946 19.7071 14.2071C19.8946 14.0196 20 13.7652 20 13.5V2.5C20 2.23478 19.8946 1.98043 19.7071 1.79289C19.5196 1.60536 19.2652 1.5 19 1.5H8V0.5H19C19.5304 0.5 20.0391 0.710712 20.4142 1.08578C20.7893 1.46086 21 1.96957 21 2.5V13.5C21 14.0304 20.7893 14.5391 20.4142 14.9142C20.0391 15.2893 19.5304 15.5 19 15.5Z" fill="#E25950"/>
<path d="M0 7.5V2.5C0 1.96957 0.210714 1.46086 0.585787 1.08578C0.96086 0.710712 1.46957 0.5 2 0.5H9V7.5H0Z" fill="#43458B"/>
<path d="M7.73 2.90798C7.58993 2.91336 7.45146 2.87674 7.33235 2.80284C7.21325 2.72894 7.11896 2.62112 7.06159 2.49323C7.00421 2.36534 6.98638 2.22323 7.01038 2.08513C7.03438 1.94703 7.09911 1.81925 7.19627 1.71822C7.29342 1.61718 7.41856 1.5475 7.55562 1.51811C7.69267 1.48873 7.83538 1.50098 7.96542 1.5533C8.09545 1.60562 8.20688 1.69562 8.28539 1.81174C8.36389 1.92786 8.4059 2.06481 8.406 2.20497C8.40613 2.38684 8.33579 2.56168 8.20973 2.69277C8.08368 2.82386 7.91173 2.90099 7.73 2.90798ZM7.433 4.20497C7.4328 4.34417 7.39135 4.48019 7.31387 4.59583C7.23639 4.71147 7.12637 4.80153 6.99772 4.85466C6.86906 4.90779 6.72754 4.9216 6.59105 4.89432C6.45455 4.86704 6.3292 4.79991 6.23084 4.70142C6.13249 4.60292 6.06554 4.47748 6.03845 4.34094C6.01137 4.20441 6.02537 4.06291 6.07869 3.93433C6.132 3.80575 6.22223 3.69586 6.33798 3.61855C6.45373 3.54124 6.58981 3.49997 6.729 3.49997C6.91571 3.49997 7.09478 3.57414 7.2268 3.70616C7.35883 3.83819 7.433 4.01725 7.433 4.20397V4.20497ZM5.73 2.90798C5.58974 2.91336 5.45107 2.87669 5.3318 2.80268C5.21253 2.72866 5.11811 2.62069 5.06066 2.49262C5.00321 2.36454 4.98536 2.22222 5.0094 2.08393C5.03344 1.94563 5.09827 1.81768 5.19556 1.71651C5.29286 1.61533 5.41817 1.54556 5.55542 1.51613C5.69267 1.48671 5.83558 1.49898 5.9658 1.55138C6.09602 1.60378 6.2076 1.6939 6.28622 1.81018C6.36484 1.92647 6.4069 2.0636 6.407 2.20397C6.40713 2.38609 6.33668 2.56119 6.21044 2.69246C6.0842 2.82374 5.91199 2.90099 5.73 2.90798ZM5.433 4.20497C5.4328 4.34417 5.39135 4.48019 5.31387 4.59583C5.23639 4.71147 5.12637 4.80153 4.99772 4.85466C4.86906 4.90779 4.72754 4.9216 4.59104 4.89432C4.45455 4.86704 4.3292 4.79991 4.23084 4.70142C4.13249 4.60292 4.06554 4.47748 4.03846 4.34094C4.01137 4.20441 4.02537 4.06291 4.07869 3.93433C4.132 3.80575 4.22223 3.69586 4.33798 3.61855C4.45373 3.54124 4.58981 3.49997 4.729 3.49997C4.91571 3.49997 5.09478 3.57414 5.2268 3.70616C5.35883 3.83819 5.433 4.01725 5.433 4.20397V4.20497ZM3.73 2.90798C3.58974 2.91336 3.45107 2.87669 3.3318 2.80268C3.21253 2.72866 3.11811 2.62069 3.06066 2.49262C3.00321 2.36454 2.98536 2.22222 3.0094 2.08393C3.03344 1.94563 3.09827 1.81768 3.19556 1.71651C3.29286 1.61533 3.41817 1.54556 3.55542 1.51613C3.69267 1.48671 3.83558 1.49898 3.9658 1.55138C4.09602 1.60378 4.2076 1.6939 4.28622 1.81018C4.36484 1.92647 4.4069 2.0636 4.407 2.20397C4.40713 2.38609 4.33668 2.56119 4.21044 2.69246C4.0842 2.82374 3.91199 2.90099 3.73 2.90798ZM3.433 4.20497C3.4328 4.34417 3.39135 4.48019 3.31387 4.59583C3.23639 4.71147 3.12637 4.80153 2.99772 4.85466C2.86906 4.90779 2.72754 4.9216 2.59104 4.89432C2.45455 4.86704 2.3292 4.79991 2.23084 4.70142C2.13249 4.60292 2.06554 4.47748 2.03846 4.34094C2.01137 4.20441 2.02537 4.06291 2.07869 3.93433C2.132 3.80575 2.22223 3.69586 2.33798 3.61855C2.45373 3.54124 2.58981 3.49997 2.729 3.49997C2.91571 3.49997 3.09478 3.57414 3.2268 3.70616C3.35883 3.83819 3.433 4.01725 3.433 4.20397V4.20497ZM1.73 2.90798C1.58993 2.91336 1.45146 2.87674 1.33235 2.80284C1.21325 2.72894 1.11896 2.62112 1.06159 2.49323C1.00421 2.36534 0.986382 2.22323 1.01038 2.08513C1.03438 1.94703 1.09911 1.81925 1.19627 1.71822C1.29342 1.61718 1.41856 1.5475 1.55562 1.51811C1.69267 1.48873 1.83538 1.50098 1.96542 1.5533C2.09545 1.60562 2.20688 1.69562 2.28539 1.81174C2.36389 1.92786 2.4059 2.06481 2.406 2.20497C2.40613 2.38684 2.33579 2.56168 2.20973 2.69277C2.08368 2.82386 1.91173 2.90099 1.73 2.90798ZM1.73 5.49997C1.87027 5.49479 2.00889 5.53165 2.12806 5.60584C2.24722 5.68002 2.34149 5.78814 2.39875 5.91629C2.45602 6.04445 2.47366 6.18679 2.44943 6.32504C2.42519 6.4633 2.36017 6.59117 2.26273 6.6922C2.16529 6.79324 2.03987 6.86284 1.90258 6.89206C1.76529 6.92129 1.62239 6.90881 1.49225 6.85622C1.3621 6.80363 1.25065 6.71334 1.1722 6.59694C1.09376 6.48054 1.0519 6.34334 1.052 6.20297C1.05213 6.02085 1.12284 5.84587 1.24927 5.71478C1.37569 5.5837 1.548 5.5067 1.73 5.49997ZM3.73 5.49997C3.87027 5.49479 4.00889 5.53165 4.12806 5.60584C4.24722 5.68002 4.34149 5.78814 4.39875 5.91629C4.45602 6.04445 4.47366 6.18679 4.44943 6.32504C4.42519 6.4633 4.36017 6.59117 4.26273 6.6922C4.16529 6.79324 4.03987 6.86284 3.90258 6.89206C3.76529 6.92129 3.62239 6.90881 3.49225 6.85622C3.3621 6.80363 3.25065 6.71334 3.1722 6.59694C3.09376 6.48054 3.0519 6.34334 3.052 6.20297C3.05213 6.02085 3.12284 5.84587 3.24927 5.71478C3.37569 5.5837 3.548 5.5067 3.73 5.49997ZM5.73 5.49997C5.87027 5.49479 6.00889 5.53165 6.12806 5.60584C6.24722 5.68002 6.34149 5.78814 6.39875 5.91629C6.45602 6.04445 6.47366 6.18679 6.44943 6.32504C6.42519 6.4633 6.36017 6.59117 6.26273 6.6922C6.16529 6.79324 6.03987 6.86284 5.90258 6.89206C5.76529 6.92129 5.62239 6.90881 5.49225 6.85622C5.3621 6.80363 5.25065 6.71334 5.1722 6.59694C5.09376 6.48054 5.0519 6.34334 5.052 6.20297C5.05213 6.02085 5.12284 5.84587 5.24927 5.71478C5.37569 5.5837 5.548 5.5067 5.73 5.49997ZM7.73 5.49997C7.87027 5.49479 8.00889 5.53165 8.12806 5.60584C8.24722 5.68002 8.34149 5.78814 8.39875 5.91629C8.45602 6.04445 8.47366 6.18679 8.44943 6.32504C8.42519 6.4633 8.36017 6.59117 8.26273 6.6922C8.16529 6.79324 8.03987 6.86284 7.90258 6.89206C7.76529 6.92129 7.62239 6.90881 7.49225 6.85622C7.3621 6.80363 7.25065 6.71334 7.1722 6.59694C7.09376 6.48054 7.0519 6.34334 7.052 6.20297C7.05213 6.02085 7.12284 5.84587 7.24927 5.71478C7.37569 5.5837 7.548 5.5067 7.73 5.49997Z" fill="white"/>
<path opacity="0.5" d="M9 4.70995C8.90076 4.80587 8.77547 4.87044 8.63977 4.89563C8.50407 4.92083 8.36396 4.90552 8.2369 4.85161C8.10984 4.79771 8.00146 4.7076 7.92527 4.59252C7.84908 4.47743 7.80845 4.34246 7.80845 4.20444C7.80845 4.06642 7.84908 3.93147 7.92527 3.81638C8.00146 3.7013 8.10984 3.61117 8.2369 3.55727C8.36396 3.50337 8.50407 3.48806 8.63977 3.51325C8.77547 3.53844 8.90076 3.60303 9 3.69895V4.70995ZM0 3.73494C0.0942073 3.62845 0.218731 3.55331 0.356863 3.51961C0.494995 3.48592 0.640129 3.49527 0.772793 3.54642C0.905457 3.59757 1.0193 3.68807 1.09906 3.80578C1.17882 3.92348 1.22067 4.06277 1.219 4.20495C1.219 4.39139 1.14493 4.57021 1.0131 4.70205C0.881258 4.83388 0.702447 4.90795 0.516 4.90795C0.41837 4.90743 0.321948 4.88632 0.233033 4.846C0.144118 4.80568 0.0647107 4.74704 0 4.67394V3.73494Z" fill="white"/>
</svg>
