<svg width="21" height="16" viewBox="0 0 21 16" fill="none" xmlns="http://www.w3.org/2000/svg">
<path d="M6 0.5H15V15.5H6V0.5Z" fill="#F6F9FC"/>
<path opacity="0.1" d="M6 15.5V14.5H15V15.5H6ZM6 0.5H15V1.5H6V0.5Z" fill="#8898AA"/>
<path d="M2 0.5H7V15.5H2C1.46957 15.5 0.960858 15.2893 0.585785 14.9142C0.210712 14.5391 0 14.0304 0 13.5V2.5C0 1.96957 0.210712 1.46086 0.585785 1.08578C0.960858 0.710712 1.46957 0.5 2 0.5Z" fill="#555ABF"/>
<path d="M19 15.5H14V0.5H19C19.5304 0.5 20.0391 0.710712 20.4142 1.08578C20.7893 1.46086 21 1.96957 21 2.5V13.5C21 14.0304 20.7893 14.5391 20.4142 14.9142C20.0391 15.2893 19.5304 15.5 19 15.5Z" fill="#E25950"/>
</svg>
