<svg width="21" height="16" viewBox="0 0 21 16" fill="none" xmlns="http://www.w3.org/2000/svg">
<path d="M2 0.5H19C19.5304 0.5 20.0391 0.710712 20.4142 1.08578C20.7893 1.46086 21 1.96957 21 2.5V13.5C21 14.0304 20.7893 14.5391 20.4142 14.9142C20.0391 15.2893 19.5304 15.5 19 15.5H2C1.46957 15.5 0.960858 15.2893 0.585785 14.9142C0.210712 14.5391 0 14.0304 0 13.5V2.5C0 1.96957 0.210712 1.46086 0.585785 1.08578C0.960858 0.710712 1.46957 0.5 2 0.5Z" fill="#F6F9FC"/>
<path opacity="0.2" d="M19 15.5H2C1.46957 15.5 0.960858 15.2893 0.585785 14.9142C0.210712 14.5391 0 14.0304 0 13.5V2.5C0 1.96957 0.210712 1.46086 0.585785 1.08578C0.960858 0.710712 1.46957 0.5 2 0.5H19C19.5304 0.5 20.0391 0.710712 20.4142 1.08578C20.7893 1.46086 21 1.96957 21 2.5V13.5C21 14.0304 20.7893 14.5391 20.4142 14.9142C20.0391 15.2893 19.5304 15.5 19 15.5ZM20 2.5C20 2.23478 19.8946 1.98043 19.7071 1.79289C19.5196 1.60536 19.2652 1.5 19 1.5H2C1.73478 1.5 1.48044 1.60536 1.29291 1.79289C1.10537 1.98043 1 2.23478 1 2.5V13.5C1 13.7652 1.10537 14.0196 1.29291 14.2071C1.48044 14.3946 1.73478 14.5 2 14.5H19C19.2652 14.5 19.5196 14.3946 19.7071 14.2071C19.8946 14.0196 20 13.7652 20 13.5V2.5Z" fill="#8898AA"/>
<path d="M10.5 4.5C11.1922 4.5 11.8689 4.70527 12.4445 5.08986C13.0201 5.47444 13.4687 6.02106 13.7336 6.66061C13.9985 7.30015 14.0678 8.00388 13.9327 8.68282C13.7977 9.36175 13.4644 9.98539 12.9749 10.4749C12.4854 10.9644 11.8618 11.2977 11.1828 11.4327C10.5039 11.5678 9.80016 11.4985 9.16061 11.2336C8.52107 10.9687 7.97443 10.5201 7.58984 9.9445C7.20526 9.36892 7 8.69223 7 8C7 7.07174 7.36874 6.1815 8.02512 5.52512C8.68149 4.86875 9.57174 4.5 10.5 4.5Z" fill="#E25950"/>
</svg>
