<svg width="21" height="16" viewBox="0 0 21 16" fill="none" xmlns="http://www.w3.org/2000/svg">
<path d="M2 0.5H19C19.5304 0.5 20.0391 0.710712 20.4142 1.08578C20.7893 1.46086 21 1.96957 21 2.5V13.5C21 14.0304 20.7893 14.5391 20.4142 14.9142C20.0391 15.2893 19.5304 15.5 19 15.5H2C1.46957 15.5 0.960858 15.2893 0.585785 14.9142C0.210712 14.5391 0 14.0304 0 13.5V2.5C0 1.96957 0.210712 1.46086 0.585785 1.08578C0.960858 0.710712 1.46957 0.5 2 0.5Z" fill="#F6F9FC"/>
<path d="M1.995 0.5H19.005C19.5332 0.501316 20.0394 0.711515 20.4132 1.08472C20.7869 1.45792 20.9979 1.96382 21 2.492V13.508C20.9995 14.0367 20.789 14.5435 20.4149 14.917C20.0408 15.2906 19.5337 15.5003 19.005 15.5H1.995C1.46681 15.4987 0.960586 15.2885 0.586823 14.9153C0.213059 14.5421 0.0021111 14.0362 0 13.508V2.492C0.000530193 1.96333 0.210977 1.45651 0.585083 1.08297C0.959189 0.709426 1.46633 0.499735 1.995 0.5ZM1.995 1.5C1.73075 1.50053 1.47752 1.60594 1.29095 1.79308C1.10438 1.98021 0.999734 2.23375 1 2.498V13.502C1.00052 13.766 1.10544 14.0191 1.29184 14.2061C1.47824 14.393 1.73099 14.4987 1.995 14.5H19.005C19.2693 14.4995 19.5225 14.3941 19.709 14.2069C19.8956 14.0198 20.0003 13.7662 20 13.502V2.498C19.9995 2.234 19.8946 1.98091 19.7082 1.79395C19.5218 1.60698 19.269 1.50132 19.005 1.5H1.995Z" fill="#DFE5EB"/>
<path d="M7 7.99994C7.00023 7.47514 7.11847 6.9571 7.34598 6.48418C7.57349 6.01125 7.90444 5.59554 8.31433 5.26781C8.72423 4.94009 9.20257 4.70874 9.71396 4.59087C10.2254 4.47301 10.7567 4.47166 11.2687 4.58692C11.7807 4.70218 12.2602 4.9311 12.6718 5.25674C13.0833 5.58238 13.4164 5.9964 13.6463 6.46816C13.8762 6.93992 13.997 7.45735 13.9999 7.98215C14.0028 8.50694 13.8877 9.02567 13.663 9.49994H7.33701C7.11445 9.03125 6.99931 8.51879 7 7.99994Z" fill="#E25950"/>
<path d="M14 3.707V3.5H15.207L16.5 5.293V5.5H15.293L14 3.707ZM4.5 5.293L5.793 3.5H7V3.707L5.707 5.5H4.5V5.293ZM14 12.293L15.293 10.5H16.5V10.707L15.207 12.5H14V12.293ZM4.5 10.707V10.5H5.707L7 12.293V12.5H5.793L4.5 10.707Z" fill="black" fill-opacity="0.9"/>
<path d="M12.175 7.236C12.5849 7.21752 12.988 7.34506 13.3127 7.59592C13.6373 7.84679 13.8625 8.20472 13.948 8.606C13.8073 9.4049 13.3935 10.1301 12.7774 10.6578C12.1613 11.1855 11.381 11.4828 10.57 11.499C9.92589 11.494 9.29444 11.3195 8.7392 10.9929C8.18395 10.6664 7.72449 10.1995 7.40701 9.639C7.14375 9.14327 7.00411 8.59128 7 8.03C7.00409 7.49568 7.13866 6.97046 7.392 6.5C7.394 6.547 7.396 6.598 7.396 6.654C7.396 7.328 7.39301 8.738 9.08801 8.738C10.783 8.738 10.734 7.236 12.175 7.236Z" fill="#43458B"/>
</svg>
