<svg width="28" height="28" viewBox="0 0 28 28" fill="none" xmlns="http://www.w3.org/2000/svg">
<circle cx="14" cy="14" r="14" fill="#345D9D"/>
<path d="M13.1805 18.0258L14.2484 14.4222L15.8949 13.9429L16.2451 12.7583L14.6134 13.255L16.3519 7.33682C16.3642 7.29316 16.3662 7.24725 16.3577 7.20269C16.3493 7.15813 16.3306 7.11614 16.3031 7.08003C16.2757 7.04391 16.2402 7.01467 16.1996 6.99458C16.1589 6.9745 16.1141 6.96413 16.0688 6.9643H13.8585C13.7733 6.96445 13.6906 6.99244 13.6229 7.04401C13.5552 7.09558 13.5062 7.16789 13.4835 7.2499L11.4122 14.2484L9.77808 14.7451L9.41797 15.9099L11.0496 15.4132L9.57443 20.3951H18.299C18.3841 20.3952 18.4669 20.3676 18.535 20.3166C18.6031 20.2655 18.6527 20.1937 18.6764 20.1119L19.1731 18.4008C19.1858 18.3572 19.1882 18.3112 19.1801 18.2665C19.172 18.2218 19.1536 18.1796 19.1264 18.1433C19.0992 18.1069 19.0639 18.0773 19.0233 18.057C18.9827 18.0366 18.9379 18.0259 18.8925 18.0258H13.1805Z" fill="white"/>
</svg>
