<svg width="21" height="16" viewBox="0 0 21 16" fill="none" xmlns="http://www.w3.org/2000/svg">
<path d="M1 1.13989H20V7.4939H1V1.13989Z" fill="white"/>
<path d="M0.500016 7.75001H20.5V2.24801C20.499 1.85155 20.3412 1.4716 20.0612 1.19098C19.7811 0.910369 19.4015 0.751852 19.005 0.750005H1.99502C1.79829 0.749475 1.6034 0.787881 1.42159 0.863012C1.23977 0.938143 1.07462 1.04852 0.935647 1.18776C0.796679 1.32701 0.686645 1.49239 0.611879 1.67435C0.537112 1.85632 0.499092 2.05128 0.500016 2.24801V7.75001Z" stroke="#DFE5EB"/>
<path d="M0 7.25V13.252C0.00105383 13.7811 0.211483 14.2882 0.585304 14.6626C0.959125 15.037 1.46595 15.2482 1.995 15.25H19.005C19.2674 15.2505 19.5273 15.1992 19.7698 15.0989C20.0123 14.9987 20.2325 14.8515 20.4179 14.6658C20.6033 14.4801 20.7502 14.2596 20.8501 14.017C20.95 13.7744 21.0009 13.5144 21 13.252V7.25H0Z" fill="#E25950"/>
</svg>
