<svg width="32" height="32" viewBox="0 0 32 32" fill="none" xmlns="http://www.w3.org/2000/svg">
<circle cx="16" cy="16" r="16" fill="white"/>
<path d="M20.7582 12.8359C20.4201 12.6427 19.9853 12.6427 19.5989 12.8359L16.8937 14.43L15.058 15.4445L12.4011 17.0386C12.063 17.2318 11.6282 17.2318 11.2418 17.0386L9.16456 15.7826C8.82641 15.5894 8.58487 15.203 8.58487 14.7682V12.3528C8.58487 11.9664 8.7781 11.5799 9.16456 11.3384L11.2418 10.1307C11.5799 9.93749 12.0147 9.93749 12.4011 10.1307L14.4783 11.3867C14.8165 11.5799 15.058 11.9664 15.058 12.4011V13.9953L16.8937 12.9325V11.2901C16.8937 10.9036 16.7004 10.5172 16.314 10.2756L12.4494 8.00521C12.1113 7.81198 11.6765 7.81198 11.2901 8.00521L7.32889 10.3239C6.94243 10.5172 6.74921 10.9036 6.74921 11.2901V15.8309C6.74921 16.2174 6.94243 16.6039 7.32889 16.8454L11.2418 19.1158C11.5799 19.309 12.0147 19.309 12.4011 19.1158L15.058 17.57L16.8937 16.5072L19.5506 14.9614C19.8887 14.7682 20.3235 14.7682 20.7099 14.9614L22.7871 16.1691C23.1253 16.3623 23.3668 16.7488 23.3668 17.1835V19.5989C23.3668 19.9853 23.1736 20.3718 22.7871 20.6133L20.7582 21.821C20.4201 22.0142 19.9853 22.0142 19.5989 21.821L17.5217 20.6133C17.1835 20.4201 16.942 20.0336 16.942 19.5989V18.0531L15.1063 19.1158V20.7099C15.1063 21.0964 15.2995 21.4829 15.686 21.7244L19.5989 23.9948C19.937 24.188 20.3718 24.188 20.7582 23.9948L24.6711 21.7244C25.0092 21.5312 25.2508 21.1447 25.2508 20.7099V16.1208C25.2508 15.7343 25.0575 15.3479 24.6711 15.1063L20.7582 12.8359Z" fill="#8247E5"/>
</svg>
