<svg width="21" height="16" viewBox="0 0 21 16" fill="none" xmlns="http://www.w3.org/2000/svg">
<path d="M8 15.5H2C1.46957 15.5 0.960858 15.2893 0.585785 14.9142C0.210712 14.5391 0 14.0304 0 13.5V2.5C0 1.96957 0.210712 1.46086 0.585785 1.08578C0.960858 0.710712 1.46957 0.5 2 0.5H8V15.5Z" fill="#24B47E"/>
<path d="M19 15.5H7V0.5H19C19.5304 0.5 20.0391 0.710712 20.4142 1.08578C20.7893 1.46086 21 1.96957 21 2.5V13.5C21 14.0304 20.7893 14.5391 20.4142 14.9142C20.0391 15.2893 19.5304 15.5 19 15.5Z" fill="#E25950"/>
<path d="M10.0031 7.99998C10.0029 7.06355 9.63081 6.16551 8.96858 5.50342C8.30635 4.84133 7.40824 4.46942 6.4718 4.46948C5.53537 4.46955 4.6373 4.8416 3.97516 5.50378C3.31302 6.16597 2.94104 7.06405 2.94104 8.00049C2.94104 8.93692 3.31302 9.83501 3.97516 10.4972C4.6373 11.1594 5.53537 11.5314 6.4718 11.5315C7.40824 11.5315 8.30635 11.1596 8.96858 10.4975C9.63081 9.83545 10.0029 8.93743 10.0031 8.00099V7.99998Z" fill="#FCD669"/>
<path d="M6.425 5.50112C6.91922 5.48631 7.40674 5.61838 7.8259 5.88064C8.24506 6.1429 8.57704 6.52355 8.77986 6.97448C8.98268 7.42541 9.04724 7.92636 8.96536 8.41398C8.88349 8.9016 8.65885 9.35398 8.31987 9.71394C7.98089 10.0739 7.54279 10.3252 7.06096 10.4362C6.57913 10.5472 6.07523 10.5128 5.61295 10.3374C5.15067 10.162 4.75077 9.8534 4.46385 9.45072C4.17693 9.04804 4.01586 8.56933 4.00101 8.07511L4 8.00011C3.99997 7.35004 4.25316 6.72551 4.70587 6.25898C5.15859 5.79245 5.77522 5.52062 6.425 5.50112Z" fill="#E25950"/>
<path d="M5.5 6.5H7.5V8.53101C7.5 8.79622 7.39464 9.05058 7.20711 9.23811C7.01957 9.42565 6.76522 9.53101 6.5 9.53101C6.23478 9.53101 5.98043 9.42565 5.79289 9.23811C5.60536 9.05058 5.5 8.79622 5.5 8.53101V6.5Z" fill="#F6F9FC"/>
</svg>
