<svg width="21" height="16" viewBox="0 0 21 16" fill="none" xmlns="http://www.w3.org/2000/svg">
<path d="M1.995 0.5C1.46569 0.501059 0.958434 0.711994 0.584442 1.08655C0.21045 1.4611 0.000263724 1.9687 0 2.498V6.5H21V2.498C20.9989 1.96894 20.7885 1.4618 20.4147 1.08742C20.0409 0.713034 19.5341 0.501849 19.005 0.5H1.995Z" fill="#F6F9FC"/>
<path d="M0.5 6H20.5V2.498C20.4989 2.10155 20.3412 1.72159 20.0612 1.44098C19.7811 1.16036 19.4015 1.00185 19.005 1H1.995C1.5983 1.00106 1.21821 1.15932 0.937988 1.44011C0.657764 1.7209 0.500263 2.10131 0.5 2.498V6Z" stroke="#DFE5EB"/>
<path d="M0 5.5H21V10.5H0V5.5Z" fill="#43458B"/>
<path d="M0 10.5V13.495C0.000256215 14.0249 0.210221 14.5333 0.584015 14.9089C0.957809 15.2846 1.46505 15.4971 1.995 15.5H19.005C19.2678 15.4997 19.5279 15.4476 19.7704 15.3466C20.013 15.2457 20.2333 15.0978 20.4186 14.9116C20.604 14.7253 20.7507 14.5043 20.8505 14.2612C20.9503 14.0181 21.0011 13.7577 21 13.495V10.5H0Z" fill="#E25950"/>
</svg>
