<svg width="24" height="24" viewBox="0 0 24 24" fill="none" xmlns="http://www.w3.org/2000/svg">
<path d="M18 10.9997C18 12.9335 17.2169 14.6835 15.9499 15.9496C14.8048 17.0948 13.298 17.8075 11.6863 17.9663C10.0746 18.125 8.45775 17.7201 7.11118 16.8204C5.7646 15.9207 4.77164 14.5819 4.30148 13.0322C3.83132 11.4825 3.91306 9.81765 4.53276 8.32142C5.15246 6.8252 6.27179 5.59013 7.70002 4.82667C9.12826 4.0632 10.777 3.81858 12.3654 4.13447C13.9538 4.45036 15.3835 5.30722 16.4109 6.55906C17.4384 7.8109 17.9999 9.38026 18 10.9997Z" stroke="#18191B" stroke-width="2" stroke-linecap="round" stroke-linejoin="round"/>
<path d="M20 20L16 16" stroke="#18191B" stroke-width="2" stroke-linecap="round" stroke-linejoin="round"/>
</svg>
