<svg width="24" height="24" viewBox="0 0 24 24" fill="none" xmlns="http://www.w3.org/2000/svg">
<path d="M8.03333 5.7C6.74467 5.7 5.7 6.74467 5.7 8.03333V8.3335C5.7 8.95234 5.45417 9.54583 5.01658 9.98342L4.64992 10.3501C3.73869 11.2613 3.73869 12.7387 4.64992 13.6499L5.01658 14.0166C5.45417 14.4542 5.7 15.0477 5.7 15.6665V15.9667C5.7 17.2553 6.74467 18.3 8.03333 18.3H8.3335C8.95234 18.3 9.54583 18.5458 9.98342 18.9834L10.3501 19.3501C11.2613 20.2613 12.7387 20.2613 13.6499 19.3501L14.0166 18.9834C14.4542 18.5458 15.0477 18.3 15.6665 18.3H15.9667C17.2553 18.3 18.3 17.2553 18.3 15.9667V15.6665C18.3 15.0477 18.5458 14.4542 18.9834 14.0166L19.3501 13.6499C20.2613 12.7387 20.2613 11.2613 19.3501 10.3501L18.9834 9.98342C18.5458 9.54583 18.3 8.95234 18.3 8.3335V8.03333C18.3 6.74467 17.2553 5.7 15.9667 5.7H15.6665C15.0477 5.7 14.4542 5.45417 14.0166 5.01658L13.6499 4.64992C12.7387 3.73869 11.2613 3.73869 10.3501 4.64992L9.98342 5.01658C9.54583 5.45417 8.95234 5.7 8.3335 5.7H8.03333Z" stroke="#A6B0BA" stroke-width="2" stroke-linecap="round" stroke-linejoin="round"/>
<path d="M12 15C13.6569 15 15 13.6569 15 12C15 10.3431 13.6569 9 12 9C10.3431 9 9 10.3431 9 12C9 13.6569 10.3431 15 12 15Z" stroke="#A6B0BA" stroke-width="2" stroke-linecap="round" stroke-linejoin="round"/>
</svg>
