<svg width="21" height="16" viewBox="0 0 21 16" fill="none" xmlns="http://www.w3.org/2000/svg">
<path d="M0 3.5H21V12.5H0V3.5Z" fill="#FCD669"/>
<path d="M0 4.5V2.5C0 1.96957 0.210712 1.46086 0.585785 1.08578C0.960858 0.710712 1.46957 0.5 2 0.5H19C19.5304 0.5 20.0391 0.710712 20.4142 1.08578C20.7893 1.46086 21 1.96957 21 2.5V4.5H0ZM19 15.5H2C1.46957 15.5 0.960858 15.2893 0.585785 14.9142C0.210712 14.5391 0 14.0304 0 13.5V11.5H21V13.5C21 14.0304 20.7893 14.5391 20.4142 14.9142C20.0391 15.2893 19.5304 15.5 19 15.5Z" fill="#E25950"/>
<path d="M5 5.5H7V8H5V5.5Z" fill="#F6F9FC"/>
<path opacity="0.5" d="M5 10.5C4.46957 10.5 3.96086 10.2893 3.58578 9.91422C3.21071 9.53914 3 9.03043 3 8.5V8H5V10.5Z" fill="#E25950"/>
<path d="M5 10.5V8H7V8.5C7 9.03043 6.78929 9.53914 6.41422 9.91422C6.03914 10.2893 5.53043 10.5 5 10.5ZM3 5.5H5V8H3V5.5Z" fill="#E25950"/>
</svg>
