<svg width="28" height="28" viewBox="0 0 28 28" fill="none" xmlns="http://www.w3.org/2000/svg">
<circle cx="14" cy="14" r="14" fill="#26A17B"/>
<path d="M15.4551 14.4939V14.492C15.3735 14.4977 14.9517 14.5224 14.0133 14.5224C13.2629 14.5224 12.7367 14.5015 12.5505 14.492V14.4939C9.66485 14.3667 7.51249 13.8651 7.51249 13.2629C7.51249 12.6626 9.66675 12.1592 12.5505 12.0319V13.9943C12.7386 14.0076 13.28 14.0399 14.0266 14.0399C14.9232 14.0399 15.3716 14.0019 15.4551 13.9943V12.0338C18.3351 12.163 20.4817 12.6645 20.4817 13.2648C20.4817 13.8651 18.3332 14.3667 15.4551 14.4958M15.4551 11.8306V10.0752H19.473V7.39856H8.53453V10.0752H12.5524V11.8306C9.28681 11.9806 6.8324 12.6265 6.8324 13.4016C6.8324 14.1767 9.28871 14.8226 12.5524 14.9746V20.6015H15.457V14.9746C18.7169 14.8245 21.1675 14.1786 21.1675 13.4035C21.1675 12.6303 18.7169 11.9825 15.457 11.8325" fill="white"/>
</svg>
