<svg width="20" height="20" viewBox="0 0 20 20" fill="none" xmlns="http://www.w3.org/2000/svg">
<path d="M4.81329 10.75C5.22579 10.75 5.56018 10.4142 5.56018 10C5.56018 9.58579 5.22579 9.25 4.81329 9.25C4.4008 9.25 4.06641 9.58579 4.06641 10C4.06641 10.4142 4.4008 10.75 4.81329 10.75Z" stroke="#A6B0BA" stroke-width="1.5" stroke-linecap="round" stroke-linejoin="round"/>
<path d="M10.0413 10.75C10.4538 10.75 10.7882 10.4142 10.7882 10C10.7882 9.58579 10.4538 9.25 10.0413 9.25C9.62883 9.25 9.29443 9.58579 9.29443 10C9.29443 10.4142 9.62883 10.75 10.0413 10.75Z" stroke="#A6B0BA" stroke-width="1.5" stroke-linecap="round" stroke-linejoin="round"/>
<path d="M15.2698 10.75C15.6823 10.75 16.0167 10.4142 16.0167 10C16.0167 9.58579 15.6823 9.25 15.2698 9.25C14.8573 9.25 14.5229 9.58579 14.5229 10C14.5229 10.4142 14.8573 10.75 15.2698 10.75Z" stroke="#A6B0BA" stroke-width="1.5" stroke-linecap="round" stroke-linejoin="round"/>
</svg>
