<svg width="21" height="16" viewBox="0 0 21 16" fill="none" xmlns="http://www.w3.org/2000/svg">
<path d="M19 0.5H2C0.89543 0.5 0 1.39543 0 2.5V13.5C0 14.6046 0.89543 15.5 2 15.5H19C20.1046 15.5 21 14.6046 21 13.5V2.5C21 1.39543 20.1046 0.5 19 0.5Z" fill="#E25950"/>
<path d="M9.43104 3.59606C8.46407 3.81488 7.59925 4.35366 6.97657 5.12515C6.3539 5.89664 6.00982 6.8557 6.00004 7.84707C6.01389 8.95561 6.44325 10.0186 7.2032 10.8258C7.96315 11.6329 8.99835 12.1255 10.104 12.2061C9.45051 12.4545 8.74806 12.5473 8.05244 12.4769C7.35682 12.4066 6.68717 12.1752 6.09657 11.801C5.50597 11.4268 5.01069 10.9201 4.65001 10.3212C4.28933 9.72223 4.07317 9.04747 4.01869 8.35043C3.96421 7.65339 4.0729 6.95324 4.33613 6.30552C4.59937 5.6578 5.00989 5.08033 5.53517 4.61891C6.06045 4.15748 6.68604 3.82482 7.36229 3.64727C8.03853 3.46973 8.74684 3.45219 9.43104 3.59606Z" fill="white"/>
<path d="M11.5 9.5C12.3284 9.5 13 8.82843 13 8C13 7.17157 12.3284 6.5 11.5 6.5C10.6716 6.5 10 7.17157 10 8C10 8.82843 10.6716 9.5 11.5 9.5Z" fill="white"/>
</svg>
